# This file uses centimeters as units for non-parametric coordinates.

mtllib broccoli.mtl
g default
v -0.685376 2.690900 -2.390584
v 0.314624 2.690900 -2.390584
v -0.739929 4.131895 -2.376667
v -0.685376 4.131895 -4.042541
v -0.685376 2.690900 -4.028625
v 0.314624 2.690900 -4.028625
v -0.840167 3.843065 -2.153059
v -0.840167 3.843065 -4.266149
v 0.366213 3.843065 -4.266149
v 0.366213 3.843065 -2.153059
v -0.788578 2.916639 -2.243421
v -0.788578 2.916639 -4.175787
v 0.314624 2.916639 -4.175787
v 0.314624 2.916639 -2.243421
v -0.304170 2.690900 -3.456298
v -0.291945 2.690900 -3.014431
v -0.021000 2.690900 -3.019430
v -0.019818 2.690900 -3.470698
v -0.298057 2.690900 -3.235364
v -0.020409 2.690900 -3.245064
v -0.161994 2.690900 -3.463498
v -0.156472 2.690900 -3.016931
v -0.349260 1.397284 -3.010754
v 0.012363 1.398792 -3.017225
v -0.349260 2.570399 -3.010753
v 0.012363 2.571906 -3.017225
v -0.333187 2.571906 -3.462316
v 0.009398 2.571906 -3.487249
v -0.333187 1.398792 -3.462316
v 0.009398 1.398792 -3.487249
v -0.349260 1.555276 -3.010754
v -0.333187 1.556784 -3.462317
v 0.009398 1.556784 -3.487250
v 0.012363 1.556784 -3.017224
v -0.333187 2.433217 -3.462317
v -0.349260 2.431709 -3.010754
v 0.012363 2.433216 -3.017224
v 0.009398 2.433217 -3.487250
v -0.395438 2.571906 -3.235464
v -0.395438 2.433217 -3.235464
v -0.395438 1.556784 -3.235464
v -0.395438 1.398792 -3.235464
v 0.052038 1.398792 -3.235464
v 0.052038 1.556784 -3.235464
v 0.052038 2.427820 -3.235464
v 0.052038 2.571906 -3.235464
v -0.144052 1.398792 -2.951194
v -0.144052 1.556784 -2.951193
v -0.144052 2.433217 -2.951193
v -0.144052 2.571906 -2.951194
v -0.144052 2.571906 -3.519735
v -0.144052 2.433216 -3.519735
v -0.144052 1.556784 -3.519735
v -0.144052 1.398792 -3.519735
v -0.144052 1.398792 -3.235464
v -0.692188 3.191520 -4.271102
v -0.692188 3.191520 -2.148106
v 0.218234 3.191520 -2.148106
v 0.218234 3.191520 -4.271102
v -0.185376 2.690900 -2.390584
v -0.236977 2.916639 -2.243421
v -0.236977 3.191520 -2.148106
v -0.236977 3.843065 -2.153059
v -0.185376 2.690900 -4.028625
v -0.214468 4.119191 -2.370875
v -0.187191 4.119191 -4.036748
v -0.790394 2.903934 -4.169994
v -0.238792 2.903934 -4.169994
v -0.187191 2.678195 -4.022832
v -0.687191 2.678195 -4.022832
v -0.238792 3.830361 -4.260356
v -0.841982 3.830361 -4.260356
v -0.238792 3.178815 -4.265310
v -0.694004 3.178815 -4.265310
v 0.312809 4.119191 -2.370875
v 0.312809 4.119191 -4.036748
v 0.364398 3.830361 -4.260356
v 0.216419 3.178815 -4.265310
v 0.312809 2.903934 -4.169994
v 0.312809 2.678195 -4.022832
vt 0.453064 0.736977
vt 0.481609 0.770970
vt 0.107918 0.769057
vt 0.462572 0.244124
vt 0.136463 0.735064
vt 0.135339 0.736977
vt 0.246352 0.736977
vt 0.289205 0.736977
vt 0.332059 0.736977
vt 0.145970 0.246037
vt 0.463695 0.246037
vt 0.492240 0.280030
vt 0.117425 0.280030
vt 0.106795 0.770970
vt 0.089267 0.910476
vt 0.499136 0.910476
vt 0.455764 0.953969
vt 0.132640 0.953969
vt 0.142147 0.461116
vt 0.099898 0.419536
vt 0.509767 0.419536
vt 0.508644 0.417623
vt 0.465271 0.461116
vt 0.088307 0.812363
vt 0.500097 0.812363
vt 0.090391 0.908563
vt 0.089430 0.810450
vt 0.098938 0.321423
vt 0.510728 0.321423
vt 0.135339 0.736977
vt 0.244955 0.736977
vt 0.267461 0.246037
vt 0.267945 0.246037
vt 0.311711 0.246037
vt 0.355476 0.246037
vt 0.332772 0.542179
vt 0.344325 0.542406
vt 0.254710 0.075257
vt 0.332772 0.565970
vt 0.245184 0.566197
vt 0.364988 0.075257
vt 0.364988 0.051466
vt 0.245184 0.542406
vt 0.289186 0.542406
vt 0.267518 0.051466
vt 0.309849 0.051466
vt 0.309849 0.075257
vt 0.267517 0.075257
vt 0.289186 0.566197
vt 0.289186 0.719059
vt 0.289186 0.698174
vt 0.332772 0.697947
vt 0.332772 0.718832
vt 0.245184 0.719059
vt 0.234047 0.719059
vt 0.364988 0.207234
vt 0.245184 0.698174
vt 0.267517 0.207234
vt 0.309849 0.206422
vt 0.309849 0.228119
vt 0.267518 0.228119
vt 0.254710 0.207234
vt 0.254710 0.228119
vt 0.358687 0.051466
vt 0.358687 0.075257
vt 0.358687 0.207234
vt 0.358687 0.228119
vt 0.509604 0.319510
vt 0.491116 0.278117
vt 0.462572 0.244124
vt 0.136463 0.735064
vt 0.463695 0.246037
vt 0.331574 0.736977
vt 0.354080 0.246037
vt 0.364988 0.228119
vt 0.344325 0.719059
vt 0.254710 0.051466
vt 0.234047 0.542406
vt 0.234047 0.566197
vt 0.234047 0.698174
vt 0.344325 0.698174
vt 0.344325 0.566197
vt 0.690447 0.212641
vt 0.767520 0.212641
vt 0.767520 0.299796
vt 0.704605 0.281535
vt 0.709532 0.143090
vt 0.767520 0.125486
vt 0.827640 0.212641
vt 0.815475 0.279552
vt 0.814566 0.135446
vt 0.645361 0.456308
vt 0.690333 0.456308
vt 0.640720 0.469545
vt 0.690333 0.469545
vt 0.600388 0.456308
vt 0.591105 0.469545
vt 0.645198 0.722301
vt 0.642744 0.572464
vt 0.690170 0.572464
vt 0.690170 0.722301
vt 0.600388 0.722822
vt 0.595481 0.572985
vt 0.640720 0.552872
vt 0.694974 0.552872
vt 0.640556 0.742414
vt 0.694810 0.742414
vt 0.586302 0.742414
vt 0.586465 0.742935
vt 0.586465 0.552872
vt 0.640556 0.801017
vt 0.599612 0.801017
vt 0.681500 0.801017
vt 0.640556 0.825742
vt 0.590942 0.825742
vt 0.690170 0.825742
vt 0.645197 0.846046
vt 0.600225 0.846046
vt 0.690170 0.846046
vt 0.599775 0.494269
vt 0.640720 0.494269
vt 0.681664 0.494269
vt 0.752100 0.524182
vt 0.819671 0.625630
vt 0.820754 0.664791
vt 0.821838 0.703953
vt 0.752100 0.814533
vt 0.840727 0.524182
vt 0.844872 0.624354
vt 0.845851 0.703510
vt 0.840727 0.814533
vt 0.929355 0.524182
vt 0.870073 0.623077
vt 0.869864 0.703067
vt 0.929355 0.814533
vt 0.869969 0.663072
vn 0.000000 -0.546114 0.837711
vn 0.000000 -0.546114 0.837711
vn 0.000000 -0.438311 0.898823
vn 0.000000 -0.436256 0.899823
vn 0.000000 -0.436256 -0.899823
vn 0.000000 -0.438311 -0.898823
vn 0.000000 -0.546114 -0.837711
vn 0.000000 -0.546115 -0.837710
vn 0.000000 -1.000000 0.000000
vn 0.000000 -1.000000 0.000000
vn 0.000000 -1.000000 0.000000
vn 0.000000 -1.000000 -0.000000
vn 0.000000 -1.000000 -0.000000
vn 1.000000 -0.000000 0.000000
vn 1.000000 -0.000000 0.000000
vn 0.969221 0.246192 0.000000
vn 0.969221 0.246192 0.000000
vn -0.909463 -0.415785 0.000000
vn -0.909463 -0.415785 0.000000
vn -0.992738 0.120292 0.000000
vn -0.992738 0.120292 0.000000
vn -0.995404 -0.095726 -0.002814
vn -0.995060 -0.099240 -0.002737
vn -0.914733 0.403842 -0.013205
vn -0.914733 0.403842 -0.013205
vn 0.914529 0.345073 0.211095
vn 0.992911 -0.085285 0.082794
vn 0.990799 -0.135339 -0.000242
vn 0.981633 0.190777 -0.001115
vn 0.981633 0.190777 -0.001115
vn -0.996348 -0.085380 0.000000
vn -0.996349 -0.085380 0.000000
vn 0.008999 0.245304 -0.969405
vn 0.004713 0.238574 -0.971113
vn 0.000000 -0.093470 -0.995622
vn 0.000000 -0.097258 -0.995259
vn 0.996349 -0.085380 0.000000
vn 0.996348 -0.085380 0.000000
vn 0.000000 -0.097258 0.995259
vn 0.000000 -0.093471 0.995622
vn 0.000000 0.007602 0.999971
vn 0.000000 0.007602 0.999971
vn 0.000000 -1.000000 0.000000
vn 0.000000 -1.000000 0.000000
vn 0.000000 -1.000000 -0.000000
vn 0.000000 -1.000000 -0.000000
vn 0.000000 -1.000000 -0.000000
vn 0.000000 -1.000000 -0.000000
vn 0.000000 -1.000000 -0.000000
vn 0.000000 -1.000000 -0.000000
vn 0.000000 -1.000000 0.000000
vn -0.278741 -0.000001 0.960366
vn 0.017107 -0.000002 0.999854
vn 0.017345 -0.000000 0.999850
vn -0.278741 -0.000000 0.960366
vn -0.290492 -0.000000 -0.956878
vn -0.072587 -0.000000 -0.997362
vn -0.072587 -0.000003 -0.997362
vn -0.290491 -0.000003 -0.956878
vn 0.001946 -0.999997 -0.001721
vn 0.001056 -0.999999 -0.000934
vn 0.002208 -0.999996 -0.001952
vn 0.003734 -0.999988 -0.003302
vn 0.983874 -0.000000 0.178866
vn 0.999980 -0.000000 -0.006308
vn 0.999980 -0.000000 -0.006308
vn 0.983874 -0.000000 0.178865
vn -0.999379 -0.000000 -0.035224
vn -0.999385 -0.000000 -0.035071
vn -0.979531 0.000000 0.201294
vn -0.979531 0.000000 0.201294
vn -0.999349 0.000000 -0.036073
vn -0.999354 0.000000 -0.035936
vn -0.979531 -0.000000 0.201294
vn -0.979531 -0.000000 0.201293
vn -0.290493 0.000002 -0.956877
vn -0.072587 0.000003 -0.997362
vn -0.072587 0.000000 -0.997362
vn -0.290492 0.000000 -0.956877
vn 0.983874 0.000000 0.178865
vn 0.999981 0.000000 -0.006181
vn 0.999980 0.000000 -0.006308
vn 0.983874 0.000000 0.178865
vn -0.278741 0.000000 0.960366
vn 0.018461 0.000000 0.999830
vn 0.018677 0.000002 0.999826
vn -0.278741 0.000001 0.960366
vn -0.964351 0.000000 -0.264628
vn -0.964351 0.000001 -0.264628
vn -0.964351 -0.000000 -0.264628
vn -0.964351 -0.000001 -0.264628
vn 0.000000 -1.000000 -0.000000
vn 0.000000 -1.000000 -0.000000
vn 0.985961 -0.000000 -0.166974
vn 0.985961 -0.000000 -0.166974
vn 0.985961 0.000000 -0.166974
vn 0.985961 0.000000 -0.166974
vn 0.388918 -0.000003 0.921272
vn 0.388917 -0.000000 0.921273
vn 0.388917 0.000000 0.921273
vn 0.388917 0.000003 0.921273
vn 0.207109 0.000003 -0.978318
vn 0.207110 0.000000 -0.978318
vn 0.207109 -0.000000 -0.978318
vn 0.207108 -0.000003 -0.978318
vn 0.000000 -1.000000 -0.000001
vn 0.000000 -1.000000 -0.000000
vn 0.000000 -1.000000 0.000001
vn -0.835128 0.540923 0.099822
vn -0.835128 0.540923 0.099822
vn -0.835128 0.540923 0.099822
vn -0.835128 0.540923 0.099822
vn -0.158765 0.302191 0.939933
vn -0.158765 0.302191 0.939933
vn -0.158765 0.302191 0.939933
vn -0.158765 0.302191 0.939933
vn 0.217573 0.306419 0.926698
vn 0.217573 0.306419 0.926698
vn 0.217573 0.306419 0.926698
vn 0.217573 0.306419 0.926698
vn 0.909120 0.408289 0.082472
vn 0.909120 0.408289 0.082472
vn 0.909120 0.408289 0.082472
vn 0.909120 0.408289 0.082472
vn 0.915758 0.393550 -0.080657
vn 0.915758 0.393550 -0.080657
vn 0.915758 0.393550 -0.080657
vn 0.915758 0.393550 -0.080657
vn -0.876642 0.468422 -0.109904
vn -0.876642 0.468422 -0.109904
vn -0.876642 0.468422 -0.109904
vn -0.876642 0.468422 -0.109904
vn -0.185014 0.256758 -0.948602
vn -0.185014 0.256758 -0.948602
vn -0.185014 0.256758 -0.948602
vn -0.185014 0.256758 -0.948602
vn 0.081129 0.306180 -0.948510
vn 0.081129 0.306180 -0.948510
vn 0.081129 0.306180 -0.948510
vn 0.081129 0.306180 -0.948510
vn 0.000000 -0.546114 0.837711
vn 0.000000 -0.450780 0.892635
vn 0.000000 -0.097258 0.995259
vn 0.000000 0.007602 0.999971
vn 0.012708 0.986557 -0.162922
vn 0.011022 0.986863 0.161181
vn 0.000000 1.000000 0.000000
vn 0.000000 1.000000 0.000000
vn 0.000000 0.612170 -0.790727
vn 0.000000 0.251527 -0.967850
vn 0.000000 -0.097258 -0.995259
vn 0.000000 -0.450780 -0.892635
vn 0.000000 -0.546114 -0.837711
vn 0.000000 0.414861 0.909885
vn 0.000000 0.414861 0.909885
vn 0.000000 0.414861 0.909885
vn 0.000000 0.414861 0.909885
vn -0.280121 0.431102 0.857720
vn -0.280121 0.431102 0.857720
vn -0.280121 0.431102 0.857720
vn -0.280121 0.431102 0.857720
vn 0.770150 0.170245 0.614724
vn 0.770150 0.170245 0.614724
vn 0.770150 0.170245 0.614724
vn 0.770150 0.170245 0.614724
vn 0.421054 -0.425408 -0.801087
vn 0.421054 -0.425408 -0.801088
vn 0.421054 -0.425408 -0.801087
vn 0.421054 -0.425408 -0.801088
vn -0.960483 0.216812 0.174542
vn -0.960483 0.216812 0.174542
vn -0.960483 0.216812 0.174542
vn -0.960483 0.216812 0.174542
vn -0.199568 -0.382770 -0.902031
vn -0.199568 -0.382770 -0.902031
vn -0.199568 -0.382770 -0.902031
vn -0.199568 -0.382770 -0.902031
vn 0.754295 -0.358543 -0.549987
vn 0.754296 -0.358543 -0.549987
vn 0.754295 -0.358543 -0.549987
vn 0.754296 -0.358543 -0.549987
vn 0.000000 0.414867 0.909882
vn 0.000000 0.414867 0.909882
vn 0.000000 0.414867 0.909882
vn 0.000000 0.414867 0.909882
vn 0.022174 0.592403 -0.805337
vn 0.026153 0.980072 -0.196913
vn 0.021492 0.982603 0.184472
vn 0.002880 0.615299 0.788289
vn 0.001513 0.617217 0.786792
s 1
g broccoli
usemtl initialShadingGroup
f 1/96/1 60/92/2 61/94/3 11/97/4
s 2
f 67/115/5 68/114/6 69/117/7 70/118/8
s 3
f 5/123/9 15/124/10 19/125/11 16/126/12 1/127/13
s 2
f 2/10/14 6/11/15 13/12/16 14/13/17
s 5
f 5/6/18 1/1/19 11/2/20 12/14/21
f 8/15/22 7/16/23 3/17/24 4/18/25
s 2
f 75/19/26 10/20/27 9/21/28 77/22/29 76/23/30
s 5
f 56/24/31 57/25/32 7/16/23 8/15/22
s 2
f 72/108/33 71/106/34 73/111/35 74/112/36
f 58/28/37 59/29/38 9/21/28 10/20/27
s 1
f 57/120/39 62/121/40 63/104/41 7/110/42
s 3
f 5/123/9 64/128/43 21/129/44 15/124/10
f 60/131/45 22/130/46 17/134/47 2/135/48
f 2/135/48 17/134/47 20/136/49 18/133/50 6/132/51
s 9
f 23/36/52 47/37/53 48/82/54 31/39/55
s 10
f 32/40/56 53/79/57 54/78/58 29/43/59
s 11
f 42/83/60 55/84/61 47/85/62 23/86/63
s 12
f 24/45/64 43/46/65 44/47/66 34/48/67
s 13
f 41/49/68 42/44/69 23/36/70 31/39/71
f 39/50/72 40/51/73 36/52/74 25/53/75
s 10
f 27/54/76 51/55/77 52/80/78 35/57/79
s 12
f 37/58/80 45/59/81 46/60/82 26/61/83
s 9
f 36/52/84 49/81/85 50/76/86 25/53/87
s 13
f 40/51/73 41/49/68 31/39/71 36/52/74
s 9
f 31/39/55 48/82/54 49/81/85 36/52/84
s 12
f 34/48/67 44/47/66 45/59/81 37/58/80
s 10
f 35/57/79 52/80/78 53/79/57 32/40/56
s 13
f 35/57/88 40/51/73 39/50/72 27/54/89
f 32/40/90 41/49/68 40/51/73 35/57/88
f 29/43/91 42/44/69 41/49/68 32/40/90
s 11
f 29/87/92 54/88/93 55/84/61 42/83/60
s 12
f 44/47/66 43/46/65 30/64/94 33/65/95
f 45/59/81 44/47/66 33/65/95 38/66/96
f 46/60/82 45/59/81 38/66/96 28/67/97
s 9
f 48/38/54 47/77/53 24/45/98 34/48/99
f 49/62/85 48/38/54 34/48/99 37/58/100
f 50/63/86 49/62/85 37/58/100 26/61/101
s 10
f 52/56/78 51/75/77 28/67/102 38/66/103
f 53/41/57 52/56/78 38/66/103 33/65/104
f 54/42/58 53/41/57 33/65/104 30/64/105
s 11
f 55/84/61 54/88/93 30/91/106 43/89/107
f 47/85/62 55/84/61 43/89/107 24/90/108
s off
f 16/9/109 19/8/110 39/50/111 25/53/112
f 22/73/113 16/9/114 25/53/115 50/76/116
f 17/33/117 22/32/118 50/63/119 26/61/120
f 20/34/121 17/33/122 26/61/123 46/60/124
f 18/35/125 20/34/126 46/60/127 28/67/128
f 19/8/129 15/7/130 27/54/131 39/50/132
f 15/7/133 21/31/134 51/55/135 27/54/136
f 21/74/137 18/35/138 28/67/139 51/75/140
s 5
f 12/14/21 11/2/20 57/25/32 56/24/31
s 1
f 11/97/4 61/94/3 62/121/40 57/120/39
s 2
f 14/13/17 13/12/16 59/29/38 58/28/37
f 74/112/36 73/111/35 68/114/6 67/115/5
s 1
f 61/94/3 60/92/2 2/93/141 14/95/142
f 62/121/40 61/94/3 14/95/142 58/122/143
f 63/104/41 62/121/40 58/122/143 10/105/144
s 2
f 66/98/145 65/99/146 75/100/147 76/101/148
f 71/106/34 66/98/145 76/101/149 77/107/150
f 73/111/35 71/106/34 77/107/150 78/113/151
f 68/114/6 73/111/35 78/113/151 79/116/152
f 69/117/7 68/114/6 79/116/152 80/119/153
s 3
f 21/129/44 64/128/43 6/132/51 18/133/50
f 1/127/13 16/126/12 22/130/46 60/131/45
s off
f 64/30/154 5/6/155 70/5/156 69/71/157
f 5/6/158 12/14/159 67/3/160 70/5/161
f 56/24/162 8/15/163 72/26/164 74/27/165
f 12/14/166 56/24/167 74/27/168 67/3/169
f 9/21/170 59/29/171 78/68/172 77/22/173
f 59/29/174 13/12/175 79/69/176 78/68/177
f 13/12/178 6/11/179 80/70/180 79/69/181
f 6/11/182 64/72/183 69/4/184 80/70/185
s 2
f 66/98/145 71/106/34 72/108/33 8/109/186 4/102/187
f 66/98/145 4/102/187 3/103/188 65/99/146
f 65/99/146 3/103/188 7/110/189 63/104/190
f 65/99/146 63/104/190 10/105/27 75/100/26
