# This file uses centimeters as units for non-parametric coordinates.

mtllib mushroom.mtl
g default
v -0.050302 2.514487 -5.225121
v 0.050605 2.514487 -5.228793
v -0.088413 4.333902 -5.171764
v 0.088413 4.333902 -5.171764
v -0.088413 3.380692 -5.171764
v 0.088413 3.380692 -5.171764
v 0.090608 3.312265 -4.838803
v -0.090608 3.312265 -4.838803
v 0.097277 3.844008 -4.722802
v -0.097277 3.844008 -4.722802
v -0.088413 4.400067 -5.339128
v -0.088413 3.380692 -5.339128
v -0.088413 2.453906 -5.339128
v 0.082478 2.514487 -5.339128
v 0.088413 3.380692 -5.339128
v 0.088413 4.400067 -5.339128
v -0.088413 3.407422 -5.171764
v -0.088413 3.651104 -5.171764
v -0.088413 3.689226 -5.051742
v -0.088408 3.588119 -4.958023
v -0.086195 3.428691 -5.021510
v 0.088413 3.407422 -5.171764
v 0.088413 3.651104 -5.171764
v 0.083649 3.428742 -5.021630
v 0.081657 3.588477 -4.958861
v 0.084611 3.689292 -5.051960
v -0.088413 4.144010 -4.898665
v 0.088413 4.144010 -4.898665
v -0.050302 2.514487 -5.453135
v 0.050605 2.514487 -5.449463
v -0.088413 4.333902 -5.506491
v 0.088413 4.333902 -5.506491
v -0.088413 3.380692 -5.506491
v 0.088413 3.380692 -5.506491
v 0.090608 3.312265 -5.839452
v -0.090608 3.312265 -5.839452
v 0.097277 3.844008 -5.955454
v -0.097277 3.844008 -5.955454
v -0.088413 3.407422 -5.506491
v -0.088413 3.651104 -5.506491
v -0.088413 3.689226 -5.626514
v -0.088408 3.588119 -5.720232
v -0.086195 3.428691 -5.656745
v 0.088413 3.407422 -5.506491
v 0.088413 3.651104 -5.506491
v 0.083649 3.428742 -5.656625
v 0.081657 3.588477 -5.719395
v 0.084611 3.689292 -5.626295
v -0.088413 4.144010 -5.779590
v 0.088413 4.144010 -5.779590
vt 0.307272 0.323556
vt 0.252873 0.679725
vt 0.238652 0.816535
vt 0.320578 0.610919
vt 0.238652 0.967087
vt 0.280387 0.977537
vt 0.278843 0.313988
vt 0.280387 0.679725
vt 0.280387 0.816535
vt 0.278843 0.460367
vt 0.238652 0.859244
vt 0.238652 0.820757
vt 0.403607 0.449559
vt 0.155623 0.805727
vt 0.126697 0.889712
vt 0.432533 0.533544
vt 0.170551 0.937095
vt 0.208777 0.865276
vt 0.388679 0.580927
vt 0.358046 0.467948
vt 0.350507 0.509097
vt 0.373877 0.493128
vt 0.185562 0.849353
vt 0.201214 0.824124
vt 0.237108 0.460367
vt 0.322122 0.816535
vt 0.307901 0.679725
vt 0.322122 0.967087
vt 0.237108 0.503076
vt 0.322122 0.820757
vt 0.322122 0.859244
vt 0.154079 0.449559
vt 0.125153 0.533544
vt 0.434078 0.889712
vt 0.405151 0.805727
vt 0.390223 0.937095
vt 0.351997 0.865276
vt 0.169007 0.580927
vt 0.207179 0.509097
vt 0.183809 0.493128
vt 0.375213 0.849353
vt 0.359560 0.824124
vt 0.237108 0.610919
vt 0.278843 0.621369
vt 0.320578 0.460367
vt 0.250414 0.323556
vt 0.199640 0.467948
vt 0.237108 0.464588
vt 0.320578 0.464588
vt 0.320578 0.503076
vt 0.579019 0.479247
vt 0.514895 0.474839
vt 0.521086 0.384800
vt 0.584980 0.391137
vt 0.649218 0.484075
vt 0.654752 0.397449
vt 0.813924 0.494571
vt 0.736697 0.488544
vt 0.742235 0.402033
vt 0.819631 0.404500
vt 0.582153 0.641708
vt 0.586388 0.553498
vt 0.650588 0.554568
vt 0.646358 0.644720
vt 0.511866 0.638411
vt 0.516354 0.551725
vt 0.770596 0.650549
vt 0.774826 0.560397
vt 0.852024 0.566453
vt 0.848018 0.653049
vt 0.939481 0.571515
vt 0.935458 0.658224
vt 0.943757 0.412364
vt 0.938050 0.502435
vt 0.830733 0.201634
vt 0.828212 0.136078
vt 0.860990 0.134818
vt 0.863511 0.200374
vt 0.777247 0.203691
vt 0.742931 0.208302
vt 0.740157 0.136173
vt 0.774726 0.138135
vt 0.896289 0.199114
vt 0.893768 0.133558
vt 0.947254 0.131501
vt 0.982466 0.150161
vt 0.983449 0.175749
vt 0.949775 0.197057
vt 0.503765 0.213772
vt 0.502547 0.150393
vt 0.524391 0.161798
vt 0.525829 0.199208
vt 0.481157 0.200066
vt 0.481157 0.162629
vt 0.620074 0.209735
vt 0.617553 0.144179
vt 0.682732 0.140858
vt 0.685315 0.208041
vt 0.387387 0.214206
vt 0.322128 0.215020
vt 0.322129 0.147787
vt 0.387387 0.148601
vt 0.120206 0.217494
vt 0.120206 0.145312
vn 0.013196 -0.063582 0.997889
vn 0.013196 -0.063582 0.997889
vn 0.013196 -0.063582 0.997889
vn 0.013196 -0.063582 0.997889
vn 0.000000 0.929964 0.367650
vn 0.000000 0.929964 0.367650
vn 0.000000 1.000000 0.000000
vn 0.000000 1.000000 0.000000
vn 0.220863 -0.975305 -0.000000
vn 0.220863 -0.975305 -0.000000
vn 0.213900 -0.944556 0.249122
vn 0.213900 -0.944556 0.249122
vn 0.993065 -0.028827 0.113979
vn 0.999579 -0.029016 0.000000
vn 0.999925 -0.012234 0.000000
vn 0.998865 -0.011676 0.046167
vn -0.999940 -0.010982 0.000000
vn -0.999676 -0.025441 -0.000000
vn -0.989901 -0.025192 0.139504
vn -0.998248 -0.010514 0.058222
vn -1.000000 0.000000 0.000000
vn -1.000000 0.000000 0.000000
vn -1.000000 0.000000 0.000000
vn -1.000000 0.000000 0.000000
vn 1.000000 0.000000 0.000000
vn 1.000000 0.000000 0.000000
vn 1.000000 0.000000 0.000000
vn 1.000000 0.000000 0.000000
vn 0.000000 -0.213140 0.977022
vn 0.000000 -0.213140 0.977022
vn 0.000000 -0.213140 0.977022
vn 0.000000 -0.213140 0.977022
vn 0.000000 -0.979529 -0.201303
vn 0.000000 -0.979529 -0.201303
vn 0.000000 -0.979529 -0.201303
vn 0.000000 -0.979529 -0.201303
vn 0.999932 -0.006099 -0.009894
vn 0.987928 -0.148580 -0.043834
vn 0.978779 -0.193329 0.067942
vn 0.999958 -0.004416 0.007970
vn 0.000000 0.671667 0.740853
vn 0.000000 0.671667 0.740853
vn 0.000000 0.671667 0.740853
vn 0.000000 0.671667 0.740853
vn 0.000000 0.671667 0.740853
vn 0.000000 0.671667 0.740853
vn -0.999571 -0.003768 -0.029032
vn -0.846279 0.402447 -0.349068
vn -0.516192 0.848590 -0.115933
vn -0.999372 0.035253 0.003487
vn 0.000000 0.000000 1.000000
vn 0.000000 0.000000 1.000000
vn 0.000000 0.000000 1.000000
vn 0.000000 0.000000 1.000000
vn -0.988758 -0.140837 -0.050229
vn -0.978567 -0.196236 0.062441
vn -0.976313 -0.024617 -0.214956
vn 0.970673 -0.024181 -0.239184
vn 0.841833 0.413946 -0.346361
vn 0.517650 0.848529 -0.109714
vn -1.000000 0.000000 -0.000000
vn -0.999928 0.001268 -0.011912
vn 0.999166 -0.003862 -0.040644
vn -0.999584 0.000788 -0.028837
vn 0.998481 0.009595 -0.054256
vn 0.997940 0.063126 0.011463
vn 0.013194 -0.063581 -0.997889
vn 0.013194 -0.063581 -0.997889
vn 0.013194 -0.063581 -0.997889
vn 0.013194 -0.063581 -0.997889
vn 0.000000 0.929964 -0.367650
vn 0.000000 0.929964 -0.367650
vn 0.213900 -0.944556 -0.249121
vn 0.213900 -0.944556 -0.249121
vn 0.993065 -0.028827 -0.113979
vn 0.998865 -0.011676 -0.046167
vn -0.998248 -0.010514 -0.058222
vn -0.989901 -0.025192 -0.139504
vn -1.000000 0.000000 0.000000
vn -1.000000 0.000000 0.000000
vn -1.000000 0.000000 0.000000
vn 1.000000 0.000000 0.000000
vn 1.000000 0.000000 0.000000
vn 1.000000 0.000000 0.000000
vn 0.000000 -0.213142 -0.977021
vn 0.000000 -0.213142 -0.977021
vn 0.000000 -0.213142 -0.977021
vn 0.000000 -0.213142 -0.977021
vn 0.000000 -0.979529 0.201303
vn 0.000000 -0.979529 0.201303
vn 0.000000 -0.979529 0.201303
vn 0.000000 -0.979529 0.201303
vn 0.999932 -0.006099 0.009894
vn 0.999959 -0.004416 -0.007970
vn 0.978779 -0.193329 -0.067942
vn 0.987928 -0.148580 0.043834
vn 0.000000 0.671667 -0.740853
vn 0.000000 0.671667 -0.740853
vn 0.000000 0.671667 -0.740853
vn 0.000000 0.671667 -0.740853
vn 0.000000 0.671667 -0.740853
vn 0.000000 0.671667 -0.740853
vn -0.999571 -0.003768 0.029032
vn -0.999372 0.035253 -0.003487
vn -0.516192 0.848590 0.115933
vn -0.846279 0.402447 0.349067
vn 0.000000 0.000000 -1.000000
vn 0.000000 0.000000 -1.000000
vn 0.000000 0.000000 -1.000000
vn 0.000000 0.000000 -1.000000
vn -0.988758 -0.140837 0.050229
vn -0.978567 -0.196236 -0.062441
vn -0.976314 -0.024617 0.214956
vn 0.970673 -0.024181 0.239183
vn 0.841832 0.413947 0.346361
vn 0.517650 0.848529 0.109714
vn -1.000000 0.000000 0.000000
vn -0.999928 0.001268 0.011912
vn 0.999166 -0.003862 0.040644
vn -0.999584 0.000788 0.028837
vn 0.998481 0.009595 0.054256
vn 0.997940 0.063126 -0.011463
s off
g pCube1
usemtl initialShadingGroup
f 1/92/1 2/91/2 6/96/3 5/95/4
s 1
f 3/75/5 4/76/6 16/77/7 11/78/8
s 2
f 13/89/9 14/90/10 2/91/11 1/92/12
s 3
f 2/2/13 14/8/14 15/9/15 6/3/16
s 4
f 12/10/17 13/7/18 1/1/19 5/45/20
f 11/44/21 12/10/17 5/45/20 17/49/22 18/50/23 3/4/24
s 3
f 6/3/16 15/9/15 16/6/25 4/5/26 23/11/27 22/12/28
s off
f 8/98/29 7/97/30 9/81/31 10/80/32
f 5/95/33 6/96/34 7/97/35 8/98/36
s 5
f 28/17/37 26/18/38 23/11/39 4/5/40
s off
f 4/76/41 3/75/42 27/79/43 10/80/44 9/81/45 28/82/46
s 5
f 8/13/47 21/20/48 17/49/49 5/45/50
s off
f 22/60/51 23/73/52 18/74/53 17/57/54
s 5
f 19/51/55 18/52/56 23/53/39 26/54/38
f 20/55/57 19/51/55 26/54/38 25/56/58
f 21/58/48 20/55/57 25/56/58 24/59/59
f 17/57/49 21/58/48 24/59/59 22/60/60
f 3/4/61 18/50/56 19/21/55 27/19/62
f 9/15/63 25/23/58 26/18/38 28/17/37
f 27/19/62 19/21/55 20/22/57 10/16/64
f 7/14/65 24/24/59 25/23/58 9/15/63
f 10/16/64 20/22/57 21/20/48 8/13/47
f 6/3/66 22/12/60 24/24/59 7/14/65
s off
f 29/93/67 33/99/68 34/102/69 30/94/70
s 1
f 31/83/71 11/78/8 16/77/7 32/84/72
s 2
f 13/89/9 29/93/73 30/94/74 14/90/10
s 3
f 30/27/75 34/26/76 15/9/15 14/8/14
s 4
f 12/10/17 33/25/77 29/46/78 13/7/18
f 11/44/21 31/43/79 40/29/80 39/48/81 33/25/77 12/10/17
s 3
f 34/26/76 44/30/82 45/31/83 32/28/84 16/6/25 15/9/15
s off
f 36/100/85 38/103/86 37/104/87 35/101/88
f 33/99/89 36/100/90 35/101/91 34/102/92
s 8
f 50/36/93 32/28/94 45/31/95 48/37/96
s off
f 32/84/97 50/85/98 37/86/99 38/87/100 49/88/101 31/83/102
s 8
f 36/32/103 33/25/104 39/48/105 43/47/106
s off
f 44/68/107 39/67/108 40/64/109 45/63/110
s 8
f 41/61/111 48/62/96 45/63/95 40/64/112
f 42/65/113 47/66/114 48/62/96 41/61/111
f 43/70/106 46/69/115 47/71/114 42/72/113
f 39/67/105 44/68/116 46/69/115 43/70/106
f 31/43/117 49/38/118 41/39/111 40/29/112
f 37/34/119 50/36/93 48/37/96 47/41/114
f 49/38/118 38/33/120 42/40/113 41/39/111
f 35/35/121 37/34/119 47/41/114 46/42/115
f 38/33/120 36/32/103 43/47/106 42/40/113
f 34/26/122 35/35/121 46/42/115 44/30/116
