# This file uses centimeters as units for non-parametric coordinates.

mtllib meatball.mtl
g default
v 0.090524 2.487033 -7.790943
v -0.566640 2.487033 -7.577418
v -0.566640 2.487033 -6.886435
v 0.090524 2.487033 -6.672909
v 0.496674 2.487033 -7.231926
v 0.202781 2.987033 -8.136435
v -0.860532 2.987033 -7.790943
v -0.860532 2.987033 -6.672909
v 0.202781 2.987033 -6.327418
v 0.859945 2.987033 -7.231926
v 0.202781 3.605067 -8.136435
v -0.860532 3.605067 -7.790943
v -0.860532 3.605067 -6.672909
v 0.202781 3.605067 -6.327418
v 0.859945 3.605067 -7.231926
v 0.090524 4.105067 -7.790943
v -0.566640 4.105067 -7.577418
v -0.566640 4.105067 -6.886435
v 0.090524 4.105067 -6.672909
v 0.496674 4.105067 -7.231926
v -0.091111 2.347600 -7.231926
v -0.091111 4.219941 -7.231926
vt 0.244680 0.392766
vt 0.411209 0.341306
vt 0.485682 0.392766
vt 0.216234 0.476030
vt 0.411209 0.174777
vt 0.485682 0.123317
vt 0.244680 0.123317
vt 0.216234 0.040053
vt 0.141760 0.258042
vt 0.049705 0.258042
vt 0.079679 0.880877
vt 0.349128 0.964141
vt 0.079679 0.611428
vt 0.349128 0.528164
vt 0.515656 0.746152
vt 0.154153 0.829417
vt 0.320681 0.880877
vt 0.154153 0.662888
vt 0.320681 0.611428
vt 0.423602 0.746152
vt 0.290708 0.258042
vt 0.274654 0.746152
vt 0.741544 0.682283
vt 0.741545 0.889151
vt 0.627192 0.889151
vt 0.627191 0.682284
vt 0.741544 0.485541
vt 0.627191 0.485541
vt 0.741544 0.363947
vt 0.627191 0.363947
vt 0.741544 0.045611
vt 0.741544 0.242354
vt 0.627191 0.242354
vt 0.627191 0.045611
vn -0.266405 -0.506732 -0.819909
vn -0.266405 -0.506732 -0.819909
vn -0.266405 -0.506732 -0.819909
vn -0.266405 -0.506732 -0.819909
vn -0.862104 -0.506732 -0.000000
vn -0.862104 -0.506732 -0.000000
vn -0.862104 -0.506732 -0.000000
vn -0.862104 -0.506732 -0.000000
vn -0.266405 -0.506732 0.819909
vn -0.266405 -0.506732 0.819909
vn -0.266405 -0.506732 0.819909
vn -0.266405 -0.506732 0.819909
vn 0.697457 -0.506732 0.506732
vn 0.697457 -0.506732 0.506732
vn 0.697457 -0.506732 0.506732
vn 0.697457 -0.506732 0.506732
vn 0.697457 -0.506732 -0.506732
vn 0.697457 -0.506732 -0.506732
vn 0.697457 -0.506732 -0.506732
vn 0.697457 -0.506732 -0.506732
vn -0.309017 0.000000 -0.951057
vn -0.309017 0.000000 -0.951057
vn -0.309017 0.000000 -0.951057
vn -0.309017 0.000000 -0.951057
vn -1.000000 0.000000 -0.000000
vn -1.000000 0.000000 -0.000000
vn -1.000000 0.000000 -0.000000
vn -1.000000 0.000000 -0.000000
vn -0.309017 0.000000 0.951057
vn -0.309017 0.000000 0.951057
vn -0.309017 0.000000 0.951057
vn -0.309017 0.000000 0.951057
vn 0.809017 0.000000 0.587785
vn 0.809017 0.000000 0.587785
vn 0.809017 0.000000 0.587785
vn 0.809017 0.000000 0.587785
vn 0.809017 0.000000 -0.587785
vn 0.809017 0.000000 -0.587785
vn 0.809017 0.000000 -0.587785
vn 0.809017 0.000000 -0.587785
vn -0.266405 0.506732 -0.819909
vn -0.266405 0.506732 -0.819909
vn -0.266405 0.506732 -0.819909
vn -0.266405 0.506732 -0.819909
vn -0.862104 0.506732 -0.000000
vn -0.862104 0.506732 -0.000000
vn -0.862104 0.506732 -0.000000
vn -0.862104 0.506732 -0.000000
vn -0.266405 0.506732 0.819909
vn -0.266405 0.506732 0.819909
vn -0.266405 0.506732 0.819909
vn -0.266405 0.506732 0.819909
vn 0.697457 0.506732 0.506732
vn 0.697457 0.506732 0.506732
vn 0.697457 0.506732 0.506732
vn 0.697457 0.506732 0.506732
vn 0.697457 0.506732 -0.506732
vn 0.697457 0.506732 -0.506732
vn 0.697457 0.506732 -0.506732
vn 0.697457 0.506732 -0.506732
vn -0.086948 -0.959599 -0.267599
vn -0.086948 -0.959599 -0.267599
vn -0.086948 -0.959599 -0.267599
vn -0.281370 -0.959599 0.000000
vn -0.281370 -0.959599 0.000000
vn -0.281370 -0.959599 0.000000
vn -0.086948 -0.959599 0.267598
vn -0.086948 -0.959599 0.267598
vn -0.086948 -0.959600 0.267598
vn 0.227633 -0.959599 0.165385
vn 0.227633 -0.959599 0.165385
vn 0.227633 -0.959599 0.165385
vn 0.227633 -0.959599 -0.165385
vn 0.227633 -0.959599 -0.165385
vn 0.227633 -0.959599 -0.165385
vn -0.072563 0.972039 -0.223325
vn -0.072563 0.972039 -0.223325
vn -0.072563 0.972040 -0.223325
vn -0.234818 0.972040 0.000000
vn -0.234818 0.972040 0.000000
vn -0.234818 0.972039 0.000000
vn -0.072563 0.972040 0.223325
vn -0.072563 0.972040 0.223325
vn -0.072563 0.972040 0.223325
vn 0.189971 0.972040 0.138022
vn 0.189971 0.972039 0.138022
vn 0.189971 0.972039 0.138022
vn 0.189971 0.972039 -0.138022
vn 0.189971 0.972040 -0.138022
vn 0.189971 0.972040 -0.138022
s off
g pSphere1
usemtl initialShadingGroup
f 1/1/1 2/2/2 7/3/3 6/4/4
f 2/2/5 3/5/6 8/6/7 7/3/8
f 3/5/9 4/7/10 9/8/11 8/6/12
f 4/7/13 5/9/14 10/10/15 9/8/16
f 5/9/17 1/1/18 6/4/19 10/10/20
f 6/27/21 7/23/22 12/26/23 11/28/24
f 7/23/25 8/24/26 13/25/27 12/26/28
f 8/31/29 9/32/30 14/33/31 13/34/32
f 9/32/33 10/29/34 15/30/35 14/33/36
f 10/29/37 6/27/38 11/28/39 15/30/40
f 11/12/41 12/11/42 17/16/43 16/17/44
f 12/11/45 13/13/46 18/18/47 17/16/48
f 13/13/49 14/14/50 19/19/51 18/18/52
f 14/14/53 15/15/54 20/20/55 19/19/56
f 15/15/57 11/12/58 16/17/59 20/20/60
f 2/2/61 1/1/62 21/21/63
f 3/5/64 2/2/65 21/21/66
f 4/7/67 3/5/68 21/21/69
f 5/9/70 4/7/71 21/21/72
f 1/1/73 5/9/74 21/21/75
f 16/17/76 17/16/77 22/22/78
f 17/16/79 18/18/80 22/22/81
f 18/18/82 19/19/83 22/22/84
f 19/19/85 20/20/86 22/22/87
f 20/20/88 16/17/89 22/22/90
